# xmcd
#
# Track frame offsets:
# 150
# 17792
# 40940
# 54663
# 79656
# 101903
# 119552
# 138811
# 157850
# 180355
# 213578
# 235816
# 251821
# 269310
# 292482
# 311258
#
# Disc length: 4373 seconds
#
#
# Revision: 0
# Processed by: cddbd v1.5.1PL0 Copyright (c) Steve Scherf et al.
# Submitted via: FreeRIP 2.941 
#
DISCID=e4111310
DTITLE=Various Artist - Soul Ya
DYEAR=2005
DGENRE=Soul
TTITLE0=Hil St. Soul - Until You Come Back To Me
TTITLE1=Push - Soul Talking
TTITLE2=Soulounge - Souloung Jam
TTITLE3=Roy Ayers and The Soul Society - Everybody Loves The Sunshine
TTITLE4=SOEL - The Way U R
TTITLE5=Amy Winehouse - Intro/Stronger Than Me
TTITLE6=Musiq - Religious
TTITLE7=Randy Crawford - Sweet Regine
TTITLE8=Grenique - Should I
TTITLE9=Booster - Summer
TTITLE10=Count Basic - Follow
TTITLE11=Boney James - Appreciate
TTITLE12=Amp Fiddler - Eye To Eye
TTITLE13=Lenny White - By Any Means Necessary
TTITLE14=India.Arie - Video
TTITLE15=OLU - Sista Why
EXTD=Jam FM
EXTT0=
EXTT1=
EXTT2=
EXTT3=
EXTT4=
EXTT5=
EXTT6=
EXTT7=
EXTT8=
EXTT9=
EXTT10=
EXTT11=
EXTT12=
EXTT13=
EXTT14=
EXTT15=
PLAYORDER=
